<svg width="24" height="24" viewBox="0 0 24 24" fill="none" xmlns="http://www.w3.org/2000/svg">
<path d="M16.9562 2.15059C15.4018 2.12317 13.8974 2.70015 12.76 3.75999L12 4.50999L11.24 3.75999C10.1026 2.70015 8.59822 2.12317 7.04381 2.15059C5.4894 2.17802 4.00632 2.80771 2.90702 3.90702C1.80771 5.00632 1.17802 6.4894 1.15059 8.04381C1.12317 9.59822 1.70015 11.1026 2.75999 12.24L11.29 20.78C11.383 20.8737 11.4936 20.9481 11.6154 20.9989C11.7373 21.0497 11.868 21.0758 12 21.0758C12.132 21.0758 12.2627 21.0497 12.3846 20.9989C12.5064 20.9481 12.617 20.8737 12.71 20.78L21.24 12.24C22.2998 11.1026 22.8768 9.59822 22.8494 8.04381C22.822 6.4894 22.1923 5.00632 21.093 3.90702C19.9937 2.80771 18.5106 2.17802 16.9562 2.15059Z" fill="white"/>
</svg>
