<svg width="24" height="24" viewBox="0 0 24 24" fill="none" xmlns="http://www.w3.org/2000/svg">
<path d="M12.76 3.75999C13.8974 2.70015 15.4018 2.12317 16.9562 2.15059C18.5106 2.17802 19.9937 2.80771 21.093 3.90702C22.1923 5.00632 22.822 6.4894 22.8494 8.04381C22.8768 9.59822 22.2998 11.1026 21.24 12.24L12.71 20.78C12.617 20.8737 12.5064 20.9481 12.3846 20.9989C12.2627 21.0497 12.132 21.0758 12 21.0758C11.868 21.0758 11.7373 21.0497 11.6154 20.9989C11.4936 20.9481 11.383 20.8737 11.29 20.78L2.75999 12.24C1.70015 11.1026 1.12317 9.59822 1.15059 8.04381C1.17802 6.4894 1.80771 5.00632 2.90702 3.90702C4.00632 2.80771 5.4894 2.17802 7.04381 2.15059C8.59822 2.12317 10.1026 2.70015 11.24 3.75999L12 4.50999L12.76 3.75999ZM19.83 10.83C20.5806 10.0794 21.0022 9.06145 21.0022 7.99999C21.0022 6.93854 20.5806 5.92056 19.83 5.16999C19.4584 4.79835 19.0172 4.50355 18.5316 4.30242C18.046 4.10129 17.5256 3.99777 17 3.99777C15.9385 3.99777 14.9206 4.41943 14.17 5.16999L12.71 6.63999C12.617 6.73372 12.5064 6.80812 12.3846 6.85888C12.2627 6.90965 12.132 6.93579 12 6.93579C11.868 6.93579 11.7373 6.90965 11.6154 6.85888C11.4936 6.80812 11.383 6.73372 11.29 6.63999L9.82999 5.16999C9.07943 4.41943 8.06145 3.99777 6.99999 3.99777C5.93854 3.99777 4.92056 4.41943 4.16999 5.16999C3.41943 5.92056 2.99777 6.93854 2.99777 7.99999C2.99777 9.06145 3.41943 10.0794 4.16999 10.83L12 18.66L19.83 10.83Z" fill="white"/>
</svg>
