<svg width="24" height="24" viewBox="0 0 24 24" fill="none" xmlns="http://www.w3.org/2000/svg">
<path fill-rule="evenodd" clip-rule="evenodd" d="M2 19V4.99999C2 4.14083 3.01192 3.68166 3.6585 4.24742L11.6585 11.2474C12.1138 11.6458 12.1138 12.3542 11.6585 12.7526L3.6585 19.7526C3.01192 20.3183 2 19.8592 2 19ZM4 16.7962L9.48141 12L4 7.20376V16.7962ZM12 19V4.99999C12 4.14083 13.0119 3.68166 13.6585 4.24742L21.6585 11.2474C22.1138 11.6458 22.1138 12.3542 21.6585 12.7526L13.6585 19.7526C13.0119 20.3183 12 19.8592 12 19ZM19.4814 12L14 7.20376V16.7962L19.4814 12Z" fill="white"/>
</svg>
