<svg width="24" height="24" viewBox="0 0 24 24" fill="none" xmlns="http://www.w3.org/2000/svg">
<path fill-rule="evenodd" clip-rule="evenodd" d="M10.3415 19.7526L2.3415 12.7526C1.88617 12.3542 1.88617 11.6458 2.3415 11.2474L10.3415 4.24742C10.9881 3.68166 12 4.14083 12 4.99999V19C12 19.8592 10.9881 20.3183 10.3415 19.7526ZM20.3415 19.7526L12.3415 12.7526C11.8862 12.3542 11.8862 11.6458 12.3415 11.2474L20.3415 4.24742C20.9881 3.68166 22 4.14083 22 4.99999V19C22 19.8592 20.9881 20.3183 20.3415 19.7526ZM10 7.20376L4.51859 12L10 16.7962V7.20376ZM20 16.7962V7.20376L14.5186 12L20 16.7962Z" fill="white"/>
</svg>
