<svg width="24" height="24" viewBox="0 0 24 24" fill="none" xmlns="http://www.w3.org/2000/svg">
<path d="M5.41 16H18C18.5304 16 19.0391 15.7893 19.4142 15.4142C19.7893 15.0392 20 14.5304 20 14C20 13.7348 20.1054 13.4804 20.2929 13.2929C20.4804 13.1054 20.7348 13 21 13C21.2652 13 21.5196 13.1054 21.7071 13.2929C21.8946 13.4804 22 13.7348 22 14C22 15.0609 21.5786 16.0783 20.8284 16.8284C20.0783 17.5786 19.0609 18 18 18H5.41L7.71 20.3C7.87256 20.4925 7.9565 20.7392 7.94504 20.9908C7.93357 21.2425 7.82754 21.4805 7.64815 21.6574C7.46875 21.8343 7.22922 21.9369 6.97742 21.9448C6.72562 21.9527 6.48012 21.8653 6.29 21.7L2.29 17.7C2.10677 17.5131 2.00414 17.2618 2.00414 17C2.00414 16.7383 2.10677 16.4869 2.29 16.3L6.29 12.3C6.37892 12.1947 6.48863 12.109 6.61226 12.0481C6.73589 11.9873 6.87076 11.9526 7.00841 11.9463C7.14606 11.9401 7.28352 11.9623 7.41217 12.0117C7.54082 12.061 7.65788 12.1365 7.756 12.2332C7.85413 12.33 7.9312 12.4459 7.98238 12.5739C8.03356 12.7018 8.05776 12.8389 8.05344 12.9767C8.04912 13.1144 8.01638 13.2497 7.95728 13.3742C7.89818 13.4987 7.81399 13.6096 7.71 13.7L5.4 16H5.41ZM6 8.00001C5.46957 8.00001 4.96086 8.21072 4.58579 8.5858C4.21071 8.96087 4 9.46958 4 10C4 10.2652 3.89464 10.5196 3.70711 10.7071C3.51957 10.8947 3.26522 11 3 11C2.73478 11 2.48043 10.8947 2.29289 10.7071C2.10536 10.5196 2 10.2652 2 10C2 8.93914 2.42143 7.92173 3.17157 7.17158C3.92172 6.42144 4.93913 6.00001 6 6.00001H18.59L16.29 3.70001C16.186 3.60961 16.1018 3.49869 16.0427 3.37421C15.9836 3.24973 15.9509 3.11439 15.9466 2.97666C15.9422 2.83893 15.9664 2.7018 16.0176 2.57386C16.0688 2.44593 16.1459 2.32995 16.244 2.23321C16.3421 2.13647 16.4592 2.06105 16.5878 2.01168C16.7165 1.96232 16.8539 1.94008 16.9916 1.94635C17.1292 1.95262 17.2641 1.98727 17.3877 2.04813C17.5114 2.10899 17.6211 2.19475 17.71 2.30001L21.71 6.30001C21.8932 6.48694 21.9959 6.73826 21.9959 7.00001C21.9959 7.26176 21.8932 7.51308 21.71 7.70001L17.71 11.7C17.5199 11.8653 17.2744 11.9527 17.0226 11.9448C16.7708 11.9369 16.5312 11.8343 16.3519 11.6574C16.1725 11.4805 16.0664 11.2425 16.055 10.9908C16.0435 10.7392 16.1274 10.4925 16.29 10.3L18.6 8.00001H6Z" fill="white"/>
</svg>
