<svg width="24" height="24" viewBox="0 0 24 24" fill="none" xmlns="http://www.w3.org/2000/svg">
<path d="M4 8.00025H7.5C8.236 8.00025 8.893 8.39125 9.351 9.00125C9.676 8.39725 10.08 7.83825 10.542 7.33925C9.739 6.51625 8.676 6.00025 7.5 6.00025H4C3.447 6.00025 3 6.44825 3 7.00025C3 7.55225 3.447 8.00025 4 8.00025ZM11.685 11.1112C12.236 9.45425 13.941 8.00025 15.334 8.00025H17.172L15.879 9.29325C15.488 9.68425 15.488 10.3162 15.879 10.7072C16.074 10.9022 16.33 11.0002 16.586 11.0002C16.842 11.0002 17.098 10.9022 17.293 10.7072L21 7.00025L17.293 3.29325C16.902 2.90225 16.27 2.90225 15.879 3.29325C15.488 3.68425 15.488 4.31625 15.879 4.70725L17.172 6.00025H15.334C13.06 6.00025 10.623 7.96725 9.787 10.4792L9.315 11.8903C8.674 13.8162 7.243 15.0002 6.5 15.0002H4C3.447 15.0002 3 15.4482 3 16.0002C3 16.5522 3.447 17.0002 4 17.0002H6.5C8.337 17.0002 10.363 15.0752 11.213 12.5212L11.685 11.1112ZM15.879 12.2933C15.488 12.6842 15.488 13.3162 15.879 13.7072L17.172 15.0002H14.834C13.566 15.0002 12.504 14.1093 12.143 12.8923C11.887 13.6423 11.516 14.3912 11.053 15.0772C11.939 16.2392 13.296 17.0002 14.834 17.0002H17.172L15.879 18.2932C15.488 18.6842 15.488 19.3162 15.879 19.7073C16.074 19.9023 16.33 20.0002 16.586 20.0002C16.842 20.0002 17.098 19.9023 17.293 19.7073L21 16.0002L17.293 12.2933C16.902 11.9023 16.27 11.9023 15.879 12.2933Z" fill="white"/>
</svg>
