<svg id="Layer_1" xmlns="http://www.w3.org/2000/svg" viewBox="0 0 270.7 270.7" width="50" height="50"><style>.st0{fill:#aa182c}.st1{fill:#f5a800}.st2{fill:#fff}</style><path class="st0" d="M270.7 135.4c0 74.8-60.6 135.4-135.4 135.4C60.6 270.7 0 210.2 0 135.4 0 60.6 60.6 0 135.4 0c74.8 0 135.3 60.6 135.3 135.4"/><path class="st1" d="M35.6 208.9l-1.8-2.5-1.1.3c-.1 0-.3 0-.3-.2l-1.1-1.5c-.2-.2-.1-.4.1-.5 3.6-.9 7.4-1.9 11-2.8.3 0 .5.3.4.5l-6.2 9.5c-.1.2-.3.2-.5 0l-1.1-1.5c-.1-.1-.1-.3 0-.3l.6-1zm.1-3.1l1.1 1.5 1-1.4c.3-.4.6-.8 1-1.2l-1.5.6-1.6.5zM44.5 218.3c.1.1.1.3 0 .4l-1.3 1.1c-.1.1-.3.1-.4-.1l-3.5-4.1c-.1-.2-.1-.3 0-.4l7.7-6.7c.1-.1.3-.1.4.1l1.1 1.3c.1.1.1.3 0 .4l-6.3 5.4 2.3 2.6zM53.9 231c-.2.1-.5-.1-.4-.4l3-7.6c-2.4 1.3-4.9 2.5-7.3 3.7-.2.1-.5-.2-.4-.4l4.2-10.5c.1-.2.3-.2.5-.1l1.3 1.2c.1.1.2.2.1.3-.8 1.9-1.4 3.4-2.2 5.3l5-2.7c.1 0 .2 0 .3.1l1.4 1.3c.1.1.1.2.1.3-.8 1.9-1.4 3.4-2.2 5.3l5-2.7c.1 0 .2 0 .3.1l1.4 1.2c.2.2.1.4 0 .5L53.9 231zM65.2 237.8l-2.5-1.8-.9.6c-.1.1-.2.1-.4 0l-1.5-1.1c-.2-.2-.2-.4 0-.5 3-2 6.4-4.2 9.4-6.2.2-.1.5.1.5.4l-2.8 11c0 .2-.3.3-.4.1l-1.5-1.1c-.1-.1-.2-.2-.1-.3l.2-1.1zm-.9-2.9l1.5 1.1.5-1.6c.2-.5.3-.9.6-1.4-.4.4-.8.7-1.2 1l-1.4.9zM82.6 237.4c.2.1.2.4 0 .5l-5.9 2.7-2.4 4.1c-.1.1-.3.2-.4.1l-1.5-.8c-.2-.1-.2-.3-.2-.4l2.4-4.1-.2-2.3-.4-4.2c0-.3.2-.4.4-.2l1.8 1s.2.1.2.2c.1 1.4.2 2.7.4 4l3.7-1.7h.3l1.8 1.1zM82.6 245.9c.1-.1.2-.2.4-.1l1.5.7c.1.1.3.2.2.4-.2.6.1 1.1.6 1.4.6.2 1.2.1 1.5-.5.3-.6-.1-1.3-.6-1.5-.1 0-.8-.4-1.4-1-.8-1-1-2.2-.5-3.4.8-1.9 2.9-2.4 4.6-1.6 1.7.8 2.6 2.6 1.9 4.3-.1.1-.2.2-.4.1l-1.5-.7c-.2-.1-.2-.2-.2-.4.2-.6-.1-1.1-.6-1.3-.6-.3-1.2-.1-1.5.6-.3.6 0 1.2.6 1.5.1 0 .8.3 1.3 1 .9 1 1 2.3.5 3.4-.9 1.9-2.9 2.3-4.5 1.6-1.7-.9-2.7-2.6-1.9-4.5zM112.4 258.7c0 .1-.2.2-.4.2l-1.6-.4c-.2 0-.3-.2-.3-.3l1.2-5-3.3 4.1c0 .1-.2.1-.3.1l-1.6-.4c-.1 0-.2-.1-.2-.2l-1.3-5.4-1.2 5.1c0 .1-.2.2-.4.2l-1.6-.4c-.2 0-.3-.2-.3-.3l2.3-9.9c0-.1.2-.2.4-.2l1.7.4c.1 0 .2.2.3.2l1.8 8 5-6.4c0-.1.2-.1.3-.1l1.7.4c.2 0 .3.2.3.3l-2.5 10zM123.4 259.2l-3.1-.3-.5 1c0 .1-.2.2-.3.2l-1.8-.2c-.3 0-.4-.2-.3-.4 1.7-3.2 3.5-6.8 5.2-10 .1-.2.5-.2.6.1l2.9 10.9c.1.2-.1.4-.3.3l-1.8-.2c-.1 0-.3-.1-.3-.2l-.3-1.2zm-2.2-2.1l1.8.2-.4-1.7c-.1-.5-.2-1-.2-1.5-.2.6-.3 1-.5 1.4l-.7 1.6zM133 250.2c2.6 0 6.2.7 6.2 5.4-.1 4.5-3.7 5.3-6.3 5.3h-1.7c-.2 0-.3-.1-.3-.3l.2-10.2c0-.1.1-.3.3-.3l1.6.1zm.2 8.6c1.2.1 3.6-.3 3.6-3.2 0-2.5-1.3-3.2-3.2-3.3h-.3l-.1 6.5zM145.9 252l.2 2.1 3.9-.4c.2 0 .3.1.3.2l.2 1.6c0 .1-.1.3-.3.3l-3.9.4.2 2.1 4.7-.5c.2 0 .4.1.4.2l.2 1.6c0 .1-.1.3-.3.3l-6.7.7c-.2 0-.3-.1-.3-.2l-1-10.2c0-.1.1-.3.3-.3l6.7-.7c.2 0 .4.1.4.2l.2 1.7c0 .1-.1.3-.3.3l-4.9.6zM168.5 247.4c0 .1-.1.3-.2.3l-1.7.5 2.2 8c0 .1 0 .3-.2.3l-1.6.4c-.2.1-.3-.1-.4-.2l-2.2-8-1.8.5c-.2 0-.3 0-.4-.2l-.4-1.5c0-.1.1-.3.2-.4l5.7-1.5c.2-.1.4 0 .4.2l.4 1.6zM183.1 245.8c1 2.6.3 5.8-3 7.1-3.3 1.3-6-.7-7-3.2-1-2.6-.3-5.8 3-7.1 3.3-1.3 6 .6 7 3.2zm-2.2.9c-.6-1.6-2.2-2.8-4-2.1-1.8.7-2.2 2.6-1.6 4.2.6 1.5 2.1 2.7 4 2 1.8-.7 2.2-2.6 1.6-4.1zM203.6 234.2c1.5 2.3 1.5 5.6-1.5 7.5-3 1.9-6 .5-7.5-1.8s-1.5-5.6 1.5-7.5c3-1.9 6-.5 7.5 1.8zm-2 1.3c-.9-1.4-2.7-2.3-4.3-1.2-1.7 1.1-1.6 3-.7 4.4.9 1.4 2.6 2.3 4.3 1.2 1.7-1 1.6-3 .7-4.4zM210.7 230.1l-.6.5 2.5 3.1c.1.1.1.3-.1.4l-1.3 1.1c-.1.1-.3.1-.4 0l-6.4-7.9c-.1-.1-.1-.3.1-.4l2.6-2.1c.5-.4 2.9-2.3 4.9.2 1 1.3.9 2.4.4 3.4.7.3 1.5.7 2.2 1l2 1c.2.1.2.3 0 .5l-1.4 1.2c-.1.1-.3.1-.3.1l-4.2-2.1zm-1.9-1.1l1-.8c.3-.2 1-.9.4-1.7-.6-.8-1.6-.2-1.8 0l-1 .8 1.4 1.7zM214.6 218.1c1.8-1.8 4.8-4 8.2-.7 3.2 3.2 1.3 6.4-.6 8.2l-1.2 1.2c-.1.1-.3.1-.4 0l-7.2-7.2c-.1-.1-.1-.3 0-.4l1.2-1.1zm6.3 5.8c.9-.9 2.3-2.8.2-4.8-1.7-1.7-3.3-1.3-4.6.1l-.2.2 4.6 4.5zM225.1 210l1.7 1.3 2.4-3c.1-.2.3-.2.4-.1l1.3 1c.1.1.1.2 0 .4l-2.4 3 1.6 1.3 3-3.7c.1-.2.3-.2.4-.1l1.3 1c.1.1.1.3 0 .4l-4.2 5.3c-.1.1-.3.2-.4.1l-8-6.4c-.1-.1-.1-.3 0-.4l4.2-5.3c.1-.2.3-.2.4-.1l1.3 1c.1.1.1.3 0 .4l-3 3.9zM236.1 202.2l-.4.7 3.4 2.2c.1.1.1.3 0 .4l-.9 1.4c-.1.2-.3.2-.4.1l-8.6-5.6c-.1-.1-.2-.2-.1-.4l1.8-2.8c.3-.5 2.1-3.1 4.8-1.4 1.4.9 1.6 2 1.4 3.2l2.4.3 2.2.3c.2 0 .3.2.2.4l-1 1.6c-.1.1-.2.2-.3.2l-4.5-.6zm-2.2-.5l.7-1.1c.2-.3.7-1.2-.2-1.8-.8-.5-1.5.3-1.7.6l-.7 1.1 1.9 1.2zM32.1 198.7c-10.7-17.5-16.9-37.7-17.7-58.4C13 105.7 26.5 72 51.4 48l1 1.1c-24.7 23.8-38 57-36.6 91.2.8 20.4 6.9 40.3 17.5 57.6l-1.2.8zm209.3-4l-1.3-.7c10.9-19.3 16.1-41.3 15.2-63.5-1.3-32.6-15.4-62.5-39.6-84.3l1-1.1c24.5 22 38.8 52.3 40.1 85.2.9 22.6-4.4 44.8-15.4 64.4zM55.3 40.5l1.3 1.5 3-2.5c.2-.1.3-.1.4 0l1.1 1.3c.1.1.1.3-.1.4l-3 2.5 2.5 3.1c.1.1.1.3-.1.4l-1.3 1.1c-.1.1-.3.1-.4 0l-6.4-7.8c-.1-.1-.1-.3.1-.4l5.2-4.3c.2-.1.4-.1.4 0l1.1 1.3c.1.1.1.3-.1.4l-3.7 3zM71.2 37.6l-2.6 1.7.3 1.1c0 .1 0 .2-.2.3l-1.5 1c-.2.1-.4.1-.5-.1-.8-3.6-1.7-7.4-2.5-11 0-.3.3-.5.5-.3l9.2 6.5c.2.1.2.3 0 .5l-1.5 1c-.1.1-.3.1-.3 0l-.9-.7zm-3.1-.2l1.5-1-1.3-1c-.4-.3-.8-.6-1.1-1 .2.5.4 1 .5 1.5l.4 1.5zM87.6 29.6c.1.1 0 .3-.2.4l-1.4.7c-.2.1-.4 0-.4-.1l-2.3-4.5.1 5.3c0 .1-.1.2-.2.3l-1.4.7h-.3L77 29.1l2.4 4.7c.1.1 0 .3-.2.4l-1.5.8c-.2.1-.4 0-.4-.1l-4.6-9.1c-.1-.1 0-.3.2-.4l1.5-.8h.3l6.5 4.9-.3-8.1c0-.1.1-.2.2-.3l1.5-.8c.2-.1.3 0 .4.1l4.6 9.2zM88.7 18.2c-.1-.1 0-.3.2-.4l1.6-.6c.2-.1.3 0 .4.1l3.7 9.5c0 .1 0 .3-.2.4l-1.6.6c-.2.1-.4 0-.4-.1l-3.7-9.5zM103.8 21.8c.2-.1.3 0 .4.2l.5 1.6c0 .1-.1.3-.2.3l-5.2 1.6c-.2.1-.4 0-.4-.2l-3-9.8c0-.1 0-.3.2-.3l1.6-.5c.2-.1.3 0 .4.2l2.4 7.9 3.3-1zM114.1 10.7c.3-.1.5.1.3.4l-2.6 6 1 4.6c0 .1-.1.3-.3.3l-1.7.3c-.2 0-.3-.1-.4-.2l-1-4.6-1.7-1.5-3.1-2.9c-.2-.2-.1-.4.2-.5l2-.4h.3c1 1 1.9 1.8 3 2.8l1.6-3.7c.1-.1.2-.1.2-.1l2.2-.5zM130.3 11.4l.1 2 3.9-.1c.2 0 .3.1.3.3l.1 1.7c0 .1-.1.3-.3.3l-3.9.1.1 4c0 .1-.1.3-.3.3l-1.7.1c-.2 0-.3-.1-.3-.3L128 9.7c0-.1.1-.3.3-.3L135 9c.2 0 .3.1.4.3l.1 1.7c0 .1-.1.3-.3.3l-4.9.1zM143.2 15.7l-.8-.1-.3 4c0 .1-.2.3-.4.2l-1.7-.1c-.2 0-.3-.2-.3-.3l.7-10.2c0-.1.1-.3.3-.2l3.4.2c.6 0 3.7.3 3.5 3.5-.1 1.6-1 2.4-2.1 2.8.3.7.6 1.5.9 2.2l.8 2.1c.1.2-.1.4-.3.4l-1.9-.1c-.1 0-.3-.1-.3-.2l-1.5-4.2zm-.7-2.1l1.3.1c.4 0 1.4 0 1.5-1 .1-1-1-1.2-1.3-1.2l-1.3-.1-.2 2.2zM153.1 10.5c0-.1.2-.2.4-.2l1.7.3c.2 0 .3.2.3.3L153.9 21c0 .1-.2.2-.4.2l-1.7-.3c-.2 0-.3-.2-.3-.3l1.6-10.1zM162.6 14.2l-.5 2.1 3.8.9c.2 0 .3.2.2.3l-.4 1.6c0 .1-.2.2-.4.2l-3.8-.9-.5 2 4.6 1.1c.2 0 .3.2.3.3l-.4 1.6c0 .1-.2.2-.4.2l-6.6-1.5c-.2 0-.3-.2-.2-.3l2.3-9.9c0-.1.2-.2.4-.2l6.6 1.5c.2 0 .3.2.3.3l-.4 1.6c0 .1-.2.2-.4.2l-4.5-1.1zM178.4 27.6c0 .1-.2.2-.4.1l-1.6-.6c-.1 0-.2-.1-.2-.2l-2-7.6-2.1 6c0 .1-.2.2-.4.1l-1.6-.6c-.2-.1-.2-.2-.2-.4l3.4-9.6c0-.1.2-.2.4-.1l1.6.6c.1 0 .2.1.2.2l2 7.7 2.1-6c0-.1.2-.2.4-.1l1.6.6c.2.1.3.2.2.4l-3.4 9.5zM189.4 21c2.3 1.1 5.3 3.3 3.2 7.5-2 4.1-5.6 3.3-8 2.1l-1.5-.7c-.2-.1-.2-.3-.2-.4l4.5-9.2c.1-.1.2-.2.4-.1l1.6.8zm-3.5 7.9c1.1.6 3.3 1.3 4.6-1.3 1.1-2.2.2-3.5-1.5-4.3-.1-.1-.1-.1-.3-.1l-2.8 5.7zM200.2 36.8c.2.1.2.3.1.4l-.9 1.4c-.1.1-.3.2-.4.1l-4.6-2.9c-.2-.1-.2-.3-.1-.4l5.4-8.7c.1-.1.2-.2.4-.1l1.4.9c.2.1.2.3.1.4l-4.4 7 3 1.9zM215.3 37.3c.2.2.2.4-.1.5l-6.2 2-2.8 3.8c-.1.1-.3.1-.4 0l-1.3-1c-.2-.1-.2-.3-.1-.4l2.8-3.8.1-2.3.1-4.3c0-.3.2-.4.5-.2l1.6 1.2.2.2c-.1 1.4-.1 2.7-.1 4.1l3.8-1.3c.1 0 .2.1.3.1l1.6 1.4z"/><g><path class="st1" d="M211.8 153.3H189V138h22.6v-14.5h-7.4c-8.8 0-16-7.2-16-16V94.1c0-8.8 7.2-16 15.9-16h21.8v15.6h-21.7v14.1h7.4c8.8 0 16 7.2 16 16v13.4c.1 8.9-7.1 16.1-15.8 16.1zm-18.3-4.6h18.2c6.3 0 11.4-5.1 11.4-11.4v-13.4c0-6.3-5.1-11.4-11.4-11.4h-11.9V89.2h22v-6.5h-17.6c-6.3 0-11.4 5.2-11.4 11.4v13.4c0 6.3 5.1 11.4 11.4 11.4h11.9v23.3h-22.6v6.5zM179.4 90h-4.6l1.2-7.2h-3.4v-12H185l-1.5 10.5-4.1 8.7zm-2.2-11.8h3.3V75h-3.3v3.2zM124.4 153.3h-15.3V78.1h15.3v75.2zm-10.8-4.6h6.6v-66h-6.6v66zM102 153.3H86.5v-22.6l-7.2 22.6H63.8l-7.2-22.6v22.6H40.8V77.9h15.5l15 47.5 15.2-47.5H102v75.4zm-10.9-4.6h6.7V82.5h-7.6l-18.5 57.9L53 82.5h-7.6v66.2H52v-47.2l15.1 47.2H76l15.1-47.3v47.3zM182.9 153.3h-16.2l-4.7-18h-12.9l-4.6 18h-15.7l19.5-75.4h15.1l19.5 75.4zm-12.7-4.6h6.8l-17.2-66.2h-7.7L135 148.7h6.8l4.6-18h19.1l4.7 18zm-6.3-24.6h-15.7l7.9-30.3 7.8 30.3zm-9.9-4.5h3.9l-2-7.6-1.9 7.6z"/><path class="st0" d="M215.5 150h-22.8v-15.6h22.6v-14.2h-7.4c-8.8 0-16-7.2-16-16V90.8c0-8.8 7.2-16 15.9-16h22.1v15.6h-22v14.1h7.4c8.8 0 16 7.2 16 16v13.4c.1 8.9-7 16.1-15.8 16.1zm-18.2-4.6h18.2c6.3 0 11.4-5.1 11.4-11.4v-13.4c0-6.3-5.1-11.4-11.4-11.4h-11.9V85.9h22v-6.5H208c-6.3 0-11.4 5.2-11.4 11.4v13.4c0 6.3 5.1 11.4 11.4 11.4h11.9V139h-22.6v6.4zM182.9 88.2h-6.1L178 81h-3.4V68.6H187v11l-4.1 8.6zm-3.8-11.7h3.3v-3.3h-3.3v3.3zM128.5 150h-15.7V74.8h15.7V150zm-11.1-4.6h6.6v-66h-6.6v66zM106 150H90.2v-22.6L83 150H67.6l-7.2-22.6V150H44.5V74.6H60l15.2 47.5 15.2-47.5H106V150zm-11.2-4.6h6.7V79.2h-7.6l-18.5 57.9-18.7-57.9h-7.6v66.2h6.6V98.2l15.1 47.2h8.8l15.1-47.3v47.3h.1zM186.6 150h-16.2l-4.7-18h-12l-4.6 18h-16.3l19.5-75.4h14.8l19.5 75.4zm-12.7-4.6h6.8l-17.2-66.2h-7.7l-17.2 66.2h6.8l4.6-18h19.1l4.8 18zm-6.3-24.5h-15.7l7.9-30.3 7.8 30.3zm-9.9-4.6h3.9l-2-7.6-1.9 7.6z"/><path class="st2" d="M229.1 134.1v-13.4c0-7.6-6.1-13.7-13.7-13.7h-9.7V88.2h22V77.1h-19.8c-7.5 0-13.7 6.2-13.7 13.7v13.4c0 7.5 6.1 13.7 13.7 13.7h9.7v18.7H195v11h20.5c7.5.1 13.6-6 13.6-13.5zM184.7 70.9h-7.9v7.9h3.8l-1.2 7.1h2l3.3-6.8v-8.2zM115.1 77.1v70.6h11.1V77.1h-11.1zM103.8 147.7V76.9H92.2l-16.9 52.8-16.9-52.8H46.8v70.8H58v-34.9l11.2 34.9h12.1l11.2-34.9v34.9h11.3zM167.5 129.7l4.7 18h11.5l-18.4-70.8H154l-18.3 70.8h11.5l4.6-18h15.7zm-7.8-30.1l4.9 19h-9.8l4.9-19z"/></g><g><path class="st1" d="M117.1 214.6c0 .7-.1 1.3-.1 2 0 2.1-1.6 3.8-3.8 3.8-.4 0-.8 0-1.2-.2-.3-.1-.5-.2-.8-.3.6.6 1.3 1 2.2 1.2.4.1.8.2 1.2.2 2.1 0 3.7-1.7 3.8-3.8 0-.4 0-.9.1-1.3-.4-.4-.8-.8-1.2-1.3-.1-.1-.1-.2-.2-.3zM123.2 219.1c.8.3 1.6.4 2.5.4 1.3 0 2.7-.3 4.5-1 3-1.1 6.9-3.5 9.9-6.7-.4-.6-.7-1.1-.9-1.5-3.1 3.4-7.3 6.1-10.5 7.2-1.8.7-3.2 1-4.5 1-.9 0-1.7-.1-2.5-.4-.4-.1-.8-.3-1.2-.5.8.6 1.7 1.1 2.7 1.5zM131.2 202.5h-.1c-.9.3-1.7.4-2.4.5-.7 1.5-1.3 3.1-1.9 4.7.8-.5 1.6-1 2.4-1.6.3-.8.6-1.5.9-2.2.6-.1 1.3-.2 1.9-.4.4-.4.8-.9 1.1-1.4.1-.2.2-.4.3-.5-.8.4-1.5.7-2.2.9zM160.8 209.8c-.2-.2-.3-.3-.4-.5-.3.1-.6.2-1 .3-2.2.4-7.7 2.6-11.8 4.5-.9.4-1.8.8-2.9.8-.5 0-1.1-.1-1.7-.3 1.1 1 2.2 1.3 3.1 1.2 1.1 0 2-.4 2.9-.8 4.1-1.9 9.6-4.1 11.8-4.5.2 0 .5-.1.7-.2-.2-.1-.5-.3-.7-.5zM141.5 196.7c0 .1.1.1.1.2.1.2.3.4.4.6l.9-2.1c-.3.4-.8.9-1.4 1.3zM95 204.9c.6-1.3 1.3-2.6 1.9-3.8l2.2-4.4c1.1-2.2 1.7-4.1 2-5.8 1-.4 2-.7 2.9-1 .3-.5.7-1.1 1-1.6-1.6.3-3.5.9-5.4 1.6-.3 1.7-1 3.6-2 5.8-.7 1.4-1.4 2.9-2.2 4.4-.8 1.6-1.6 3.3-2.5 5.2.5-.2 1.1-.3 1.7-.4h.4zM137.4 183.3c-.2 1.4-.8 3.1-1.7 5 1-.9 2-1.8 2.7-2.6.1-.5.3-1 .3-1.5.2-.1.3-.2.5-.3.3-.2.7-.4 1.2-.6.6-.9 1.1-1.7 1.4-2.3-1.3.6-2.9 1.5-3.9 2-.1.1-.3.2-.5.3zM180.4 198.6c.7.6 1.2 1.4 1.6 2.3.5 1.6.2 2.7-.3 3.3-.3.5-1.1 1.5-2.8 1.8-2.6.4-8.1 2.7-12 4.5-.8.3-1.6.7-2.7.7-.5 0-1.1-.1-1.8-.3 1.1 1.1 2.4 1.3 3.2 1.3 1 0 1.9-.4 2.7-.7 3.9-1.8 9.4-4.1 12-4.5 1.6-.3 2.4-1.3 2.8-1.8.4-.7.8-1.8.3-3.3-.6-1.6-1.7-2.7-3-3.3zM182.2 185.3c.7.7 1.3 1.5 1.7 2.6.4 1.2.3 2.3-.3 3.2-.4.7-1.2 1.5-2.8 1.8-2.5.5-6 1.8-8.8 3-.3.7-.7 1.5-1 2.2.7-.3 1.5-.5 2.1-.6l.3-.6c2.8-1.2 6.3-2.5 8.8-3 1.6-.3 2.4-1.1 2.8-1.8.6-.9.7-2 .3-3.2-.6-1.8-1.7-3-3.1-3.6zM196.7 167.9c-.7-2-2-3.1-3.2-3.6.7.6 1.3 1.5 1.8 2.7.5 1.2.3 2.4-.4 3.4-.7.9-1.7 1.5-2.9 1.6-2.8.5-5.5 1.6-8.2 2.6-.5.2-1.1.4-1.6.6-1.4 2.5-2.9 5.4-4.5 8.6h.1c.6 0 1.1.1 1.7.2 1.4-2.9 2.8-5.6 4.1-7.8.5-.2 1.1-.4 1.6-.6 2.7-1 5.5-2.1 8.2-2.6 1.2-.1 2.2-.7 2.9-1.6.7-1.1.8-2.4.4-3.5zM162.4 170.3c1.4 2.7.9 6.4-1.5 11.3-.7 1.4-1.5 3-2.3 4.8-2.2 4.4-4.7 9.6-7.2 15.1.8-.3 1.5-.5 2.1-.6 2.2-4.9 4.5-9.5 6.5-13.5.9-1.8 1.7-3.4 2.3-4.8 2.4-4.9 2.8-8.6 1.5-11.3-.5-1-1.2-1.7-2.1-2 .3.3.5.6.7 1zM150.4 176.7c.2.7.3 1.4.4 2.1.3-.6.6-1.1.8-1.6-.7-2.2-2.1-3.9-3.9-4.8 1.3 1 2.2 2.5 2.7 4.3zM120.6 176.9l.2.3c.6.7.9 1.2 1.5 2.6 1.1 2.4.6 4.7.1 6.4-1 3.3-2.3 8-3.3 13.4 1-2.5 2.2-5.1 3.4-7.8.5-1.8.9-3.4 1.3-4.7.3-1.1.6-2.4.5-3.9-.2-.3-.3-.5-.5-.8-.4-.8-.5-1.6-.4-2.2-.5-1-.8-1.5-1.3-2.1l-.2-.3c-.6-.7-1.2-1.1-1.8-1.4.3.2.4.3.5.5zM107.7 213.1v-.8-.6c-.2.1-.4.1-.6.2-1.9.6-3.8 1.1-5.4 1.5-1.4 2.9-2.6 5.5-3.6 7.8-.6 1.5-2 2.5-3.6 2.5-.5 0-.9-.1-1.3-.2.7.8 1.7 1.2 2.8 1.2 1.6 0 3-1 3.6-2.5.9-2.3 2.1-5 3.6-7.8 1.3-.4 2.9-.8 4.5-1.3zM91.2 210.2v-.1c-.1-.2-.1-.4-.2-.6-2 4.2-4 9-6 14.1-.9 2.4-2.9 2.6-3.5 2.6-.4 0-.9 0-1.4-.3l.3.3c.9.8 1.9.9 2.5.9.6 0 2.6-.2 3.5-2.6 1.8-4.8 3.7-9.2 5.6-13.2-.4-.2-.6-.6-.8-1.1z"/><path class="st1" d="M140.5 183.3c-.8 1.1-2 2.4-2 2.4l-.4-1.8 2.4-.6zM132 203.6c-1 1.2-2.9 2.6-2.9 2.6v-2.5l2.9-.1zM123.6 180.2c.8 1.8.8 3 .8 3l-.8.2-.5-3.2h.5z"/><path class="st2" d="M89.7 190.1c-3.5.8-5.9-.1-6.6-2.2-.2-.5.1-.8.6-.9 5.1-.5 14.7-4.6 18-5.1 2.4-.4 4.6-.2 5.5 2 .2.4.1.9-.7 1-2.8.2-6.5 1.5-9.8 2.7.1 1.4-.3 3.5-1.9 6.7-3.5 7.2-8.4 16.5-12.9 28.2-.2.6-.5.7-.9.4-.8-.6-1.5-2.3-.8-5.3 1.3-5.2 7.6-19.3 12.9-28.7-1.2.6-2.4.9-3.4 1.2zm9.9 20.6c-1.7 3.4-3.2 6.6-4.4 9.4-.2.6-.7.7-1 .3-.7-.8-.9-2.6.3-6.2.3-1 .9-2.3 1.6-3.7-1.3-.5-1.7-1.3-1.9-1.7-.3-.7-.2-1 .7-1 .8 0 1.7-.1 2.6-.2 4.5-9 12.5-22.3 18.6-28.7.9-1 1.5-1.1 2.1-.3.6.7.7.8 1.3 2.2.6 1.3.5 2.7 0 4.4-1.5 5-3.1 11.4-4.2 18.2 1.7.3 2.4 1.3 2.6 2.6.1.5-.1.7-.6.7-.7 0-1.5 0-2.5.1-.4 3.2-.7 6.5-.9 9.7 0 .6-.3.8-.9.7-1.2-.3-2.1-1.6-2.1-5 0-1.2.1-2.8.2-4.6-4.1 1.1-8.8 2.7-11.5 3.1zm11.9-6.8c.9-6.4 2.5-14.2 4.3-19.2-4.4 5.9-9.6 14.1-14 22.1 3.5-1 7-2.3 9.7-2.9zm15.4-22.8c-.3-.6-.1-.9.6-1.1 4-1.1 9.2-5 13.1-6 2.9-.7 5.8-.3 6.8 3.6 1 3.8-.1 7.4-2 10.4-1.7 2.5-4.7 6.1-9 8.8 1.1.3 2 1 2.8 2 1.2 1.6 1.2 5.2-1.3 8.4-2.5 3.3-6.9 6.3-10.1 7.5-2.2.8-3.6 1-4.8.6-1.2-.4-2.2-1.2-2.9-2.2-.9-1.2-1.4-2-.1-6.1 2.3-7.1 6.7-16.7 11-24.2-2.5.3-3.7-.8-4.1-1.7zm3.3 18.5c-1.6.5-2.8.5-3.6.3-1.6 3.4-3 6.8-3.9 10-.6 2.2 0 2.8 1.8 2.2 3.7-1.2 8.7-4.6 11.1-8.2 2.1-3.2 2.1-5.8-3.1-5.2-.7.4-1.5.6-2.3.9zm15-21.1c-1.2-2.9-6.9.9-10.8 3 .1 1.3-.3 3.2-1.7 6.2-1.2 2.4-2.8 5.6-4.5 8.9 11.4-4.9 18.5-14.3 17-18.1zm9.1 25.4c2.9-.8 4.4.1 5.1 1.7.2.4.2.9-.6 1-2.9.5-9.2 3.2-12.6 4.7-1.4.6-2 .7-2.6-.1-.5-.7-1.2-1.6-1.5-2.3-.4-.9-.4-1.8.2-3.5 2.8-7.9 12.3-27.8 15.8-33.6.5-.8 1-.9 1.4-.1.7 1.4.9 3.8-1.4 8.7-3 6.2-8.2 16.4-12.5 26.8 3.2-1.5 6.5-2.8 8.7-3.3zm18.6-33c-.1-.5.1-.8.6-.8 4.8-.6 11.1-3.5 14.4-4.2 2.4-.5 3.7.3 4.4 2.1.2.4.1.9-.6.9-4.2.7-8.2 2.6-11.7 3.8-2.3 4-5.1 9.8-8 15.6 1.6-.6 3.1-1 4.1-1.2 2.9-.7 4.2.1 4.7 1.8.2.5.2.9-.6 1-3.1.6-7.4 2.2-10.7 3.7-1.7 3.7-3.2 7.2-4.4 10.3 2.8-1.4 6.6-3 8.9-3.5 2.8-.7 4.3 0 4.9 1.7.2.5.1.9-.6 1-3.2.5-9.5 3.3-12.7 4.8-1.1.5-1.7.6-2.4-.1-.5-.5-.8-1.3-1.2-2-.5-.9-.5-1.7.1-3.4 2.7-7.9 8.4-20.1 13.3-28.7-1.5-.5-2.2-1.6-2.5-2.8z"/></g></svg>