<svg xmlns="http://www.w3.org/2000/svg" xmlns:xlink="http://www.w3.org/1999/xlink" id="Layer_1" x="0px" y="0px" viewBox="0 0 168 78.5" style="enable-background:new 0 0 168 78.5;" xml:space="preserve"><style type="text/css">	.st0{fill:#FFFFFF;}</style><g transform="translate(1.472)">	<path class="st0" d="M18.1,0.1C15,0.5,12.9,3.6,12,5.4v0.1L0.4,43.9c-0.8,3.3-0.2,4.7,0.4,6c0.8,1.7,2.4,2.8,4.2,2.9  c2.7,0.1,4.5-2.5,5.6-4.6v-0.1V48c1.9-7.6,4-15.2,6-22.6l3-11c0,0.1,0.1,0.1,0.1,0.2c0.4,2.3,1.1,4.7,1.6,6.9c0.8,3,1.5,6.1,2,9.1  h-0.8c-1.2-0.1-2.4,0-3.5,0.3h0.1c-0.1,0-2.6,0.5-2.6,4.1c0,0.8,0.3,1.6,0.9,2.1c1,0.8,2.2,1.1,3.5,1l0,0h4.9c0.5,1.5,1,3,1.4,4.5  c1.1,3.9,2.1,8,5.1,9.7h0.1h0.1c2.1,0.6,4.3-0.1,5.6-1.7c1.8-2.3,1.8-5.3,1.4-7.5V43L27.7,8.4l-1.9-4.1l-0.1-0.1  C24.3,2.4,22-0.4,18.1,0.1z"></path>	<path class="st0" d="M72.9,16.4c1.2,1.4,0.9,4.3-0.4,6.1c-1.3,1.9-3.6,1.9-5.6,1.5c-3.4-1.3-8.3-1.9-11.3,0.5  c-4,2.9-3.7,8.2-2.3,12.2c0.9,2.6,3.1,4.5,5.8,5.1c4.9,1.1,12.1-6.8,14.3,1.5c0.2,1.4,0.4,3.4-0.8,4.4c-4.8,5.1-13,5.7-19.3,3.3  c-7.2-2.3-11.5-9.9-11.9-17.1c-1-7.8,2.6-15.5,9.3-19.8c5.7-3.5,14.4-2.7,20.2,0C71.6,14.8,72.4,15.5,72.9,16.4z"></path>	<path class="st0" d="M88.2,15.8c-0.1-0.2-0.1-0.4-0.2-0.6c-0.2-0.8-0.6-1.5-1.3-2c-1.7-1.2-4-1.5-6-0.7c-1.3,0.4-2.3,1.6-2.5,3  L78,16.1v0.1v30.9l0,0c0.1,1.7,0.9,3.3,2.2,4.4c1.7,1.4,4.1,1.6,6,0.7c1.4-0.6,2-2,2.4-3.1l0.2-0.4v-0.1l0.1-21.4  c0-0.2,0.3-4.7,4.6-4.7c1.2,0,2.4,0.4,3.3,1.2c0.9,0.9,1.3,2.2,1.3,3.5v21.5c0,1.1,1.3,2.3,1.4,2.5c1,0.8,2.3,1.3,3.7,1.3l0,0h0.1  c2.3-0.3,4.3-1.9,5-4.1l0,0l0.2-19.8c0-2.5,0.6-4.2,1.7-5.2c0.8-0.6,1.7-0.9,2.7-0.7h0.1h0.1c1,0,1.9,0.4,2.6,1.1  c1.1,1,1.6,2.7,1.6,4.9l0.2,18.9l0,0c0.2,1.5,0.8,2.9,1.8,4c1.2,0.9,2.8,1.3,4.3,1.1l0,0l0,0c2.4-0.7,4.2-2.6,4.7-5.1v-0.1  l-0.2-26.3v-0.1c-1.2-4.4-4.7-7.7-9.1-8.7c-3.9-0.6-9.2-0.4-12.8,3.6c-0.5-0.4-0.9-0.8-1.3-1.2c-1.1-1.2-2.5-2.1-4.1-2.5  C96.3,11,91.4,12.4,88.2,15.8z M86.7,13.3C86.8,13.3,86.8,13.3,86.7,13.3L86.7,13.3L86.7,13.3L86.7,13.3z"></path>	<path class="st0" d="M162.8,19.8c1.5,3,3,5.5,2.2,12.4c-0.4,1.8-1.8,3.1-3.6,3.3h-18.2c-0.3,2.1,1.6,4,3.4,5.4  c4.6,2.3,9.3-1.1,13.5-2.8c1-0.3,2.1-0.2,2.9,0.5c1.5,1.5,2,3.6,1.5,5.6c-2.2,5.1-7.4,6.8-12.2,7.5c-6.7,0.6-12.5-1.5-16.3-7.1  c-3.8-5.8-5.3-14.3-2.5-21.1c2.1-5.6,7.6-11.1,13.9-11.5C153.8,11.7,160.2,14.5,162.8,19.8z M149.2,21.1c-3.7,0-5.8,3.7-6.6,6.3  l12.5-0.1C154,21.3,149.2,21.1,149.2,21.1L149.2,21.1z"></path></g><rect y="76.6" class="st0" width="168" height="2"></rect><rect y="58" class="st0" width="168" height="2"></rect><g transform="translate(4.857 62.74)">	<path class="st0" d="M0,5.3C0,2.3,1.9,0,4.6,0s4.6,2.4,4.6,5.3c0,3-1.9,5.3-4.6,5.3S0,8.3,0,5.3z M7.2,5.3C7.2,3.6,6.3,2,4.6,2  S2.1,3.6,2.1,5.3c0,1.8,0.8,3.3,2.5,3.3S7.2,7.1,7.2,5.3z"></path>	<path class="st0" d="M17.4,5.6l-2.5-3.8c-0.1-0.2-0.2-0.4-0.2-0.6c0-0.6,0.4-1,0.9-1.1l0,0c0.3,0,0.7,0.2,0.8,0.4l1.9,3l1.9-3  c0.2-0.3,0.5-0.4,0.8-0.4c0.6,0,1,0.5,1,1l0,0c0,0.2-0.1,0.5-0.2,0.6l-2.5,3.8v3.9c0,0.6-0.4,1-1,1.1c-0.6,0-1-0.4-1.1-1V9.4  L17.4,5.6z"></path>	<path class="st0" d="M35.5,1.4c0,0.6-0.4,1-1,1.1l0,0c-0.6,0-1.1-0.4-2-0.4c-0.7,0-1.2,0.3-1.2,0.9c0,1.5,5.1,0.5,5.1,4.3  c0,2.1-1.8,3.4-3.9,3.4c-1.2,0-3.7-0.3-3.7-1.6c0-0.5,0.4-1,0.9-1c0,0,0,0,0.1,0c0.7,0,1.6,0.6,2.6,0.6c1,0,1.6-0.5,1.6-1.2  c0-1.7-5.1-0.7-5.1-4c0-2,1.8-3.3,3.8-3.3C33.4,0,35.5,0.3,35.5,1.4z"></path>	<path class="st0" d="M140.1,1.4c0,0.6-0.4,1-1,1.1l0,0c-0.6,0-1.1-0.4-2-0.4c-0.7,0-1.2,0.3-1.2,0.9c0,1.5,5.1,0.5,5.1,4.3  c0,2.1-1.8,3.4-3.9,3.4c-1.2,0-3.7-0.3-3.7-1.6c0-0.5,0.4-1,0.9-1c0,0,0,0,0.1,0c0.7,0,1.6,0.6,2.6,0.6s1.6-0.5,1.6-1.2  c0-1.7-5.1-0.7-5.1-4c0-2,1.8-3.3,3.8-3.3C137.9,0,140.1,0.3,140.1,1.4z"></path>	<path class="st0" d="M44.7,2.2h-1.5c-0.5,0-0.9-0.4-0.9-0.9V1.2c0-0.5,0.4-1,0.9-1l0,0h5c0.5,0,0.9,0.4,0.9,1l0,0  c0.1,0.5-0.3,0.9-0.8,1h-0.1h-1.5v7.3c0.1,0.6-0.3,1.1-0.9,1.1c-0.6,0.1-1.1-0.3-1.1-0.9c0-0.1,0-0.2,0-0.2L44.7,2.2z"></path>	<path class="st0" d="M54.6,1.4c0-0.7,0.3-1.3,1.1-1.3h4.5c0.5,0,0.9,0.4,1,0.9v0.1c0,0.5-0.4,1-0.9,1c0,0,0,0-0.1,0h-3.5v2.1h3.4  c0.5,0,1,0.4,1,0.9v0.1c0,0.5-0.4,1-0.9,1c0,0,0,0-0.1,0h-3.4v2.2h3.6c0.5,0,0.9,0.4,1,0.9v0.1c0,0.5-0.4,1-0.9,1c0,0,0,0-0.1,0  h-4.6c-0.6,0-1-0.4-1-1V9.3L54.6,1.4L54.6,1.4z"></path>	<path class="st0" d="M146.4,1.4c0-0.7,0.3-1.3,1.1-1.3h4.5c0.5,0,0.9,0.4,1,0.9v0.1c0,0.5-0.4,1-0.9,1c0,0,0,0-0.1,0h-3.5v2.1h3.4  c0.5,0,1,0.4,1,0.9v0.1c0,0.5-0.4,1-0.9,1c0,0,0,0-0.1,0h-3.4v2.2h3.6c0.5,0,0.9,0.4,1,0.9v0.1c0,0.5-0.4,1-0.9,1c0,0,0,0-0.1,0  h-4.6c-0.6,0-1-0.4-1-1V9.3L146.4,1.4z"></path>	<path class="st0" d="M68.3,1.3c-0.1-0.5,0.3-1,0.8-1.1c0.1,0,0.1,0,0.2,0h2.4c2.1,0,3.4,1,3.4,3.3c0,1.4-1.1,2.6-2.5,2.7l2.3,2.6  C75,9,75.1,9.2,75.1,9.4c0,0.6-0.4,1.1-1,1.1c-0.3,0-0.6-0.1-0.8-0.4l-3-3.9l0,0v3.1c0.1,0.6-0.3,1.1-0.9,1.1  c-0.6,0.1-1.1-0.3-1.1-0.9c0-0.1,0-0.2,0-0.2S68.3,1.3,68.3,1.3z M70.3,4.7h1.4c0.7,0,1.2-0.5,1.3-1.1c0-0.1,0-0.1,0-0.2  c0.1-0.6-0.4-1.2-1.1-1.3c-0.1,0-0.1,0-0.2,0h-1.4C70.3,2.1,70.3,4.7,70.3,4.7z"></path>	<path class="st0" d="M91.2,1.2c-0.1-0.6,0.3-1.1,0.9-1.1c0.5-0.1,1,0.3,1.1,0.9c0,0.1,0,0.1,0,0.2v3.1h4.2V1.2  c-0.1-0.6,0.3-1.1,0.9-1.1C98.9,0,99.4,0.4,99.4,1c0,0.1,0,0.2,0,0.2v8.2c0.1,0.6-0.3,1.1-0.9,1.1c-0.6,0.1-1.1-0.3-1.1-0.9  c0-0.1,0-0.2,0-0.2V6.3h-4.2v3.1c0.1,0.6-0.3,1.1-0.9,1.1c-0.6,0.1-1.1-0.3-1.1-0.9c0-0.1,0-0.1,0-0.2C91.2,9.4,91.2,1.2,91.2,1.2z  "></path>	<path class="st0" d="M105.6,5.3c0-3,1.9-5.3,4.6-5.3s4.6,2.4,4.6,5.3c0,3-1.9,5.3-4.6,5.3S105.6,8.3,105.6,5.3z M112.7,5.3  c0-1.7-0.8-3.3-2.5-3.3s-2.5,1.6-2.5,3.3c0,1.8,0.8,3.3,2.5,3.3S112.7,7.1,112.7,5.3z"></path>	<path class="st0" d="M119.6,1.2c-0.1-0.6,0.3-1.1,0.9-1.1c0.6-0.1,1.1,0.3,1.1,0.9c0,0.1,0,0.1,0,0.2v5c-0.1,1.2,0.7,2.2,1.9,2.4  c0.1,0,0.1,0,0.2,0c1.2-0.1,2.1-1.1,2.1-2.3l0,0v-5c-0.1-0.6,0.3-1.1,0.9-1.1c0.6-0.1,1.1,0.3,1.1,0.9c0,0.1,0,0.1,0,0.2v5.2  c0.1,2.3-1.7,4.2-3.9,4.3c-2.3,0.1-4.2-1.7-4.3-3.9c0-0.1,0-0.2,0-0.3C119.6,6.6,119.6,1.2,119.6,1.2z"></path></g><g transform="translate(160.313 62.689)">	<path class="st0" d="M0,2.4c0.1-1.2,1.2-2.2,2.4-2.1c1.2,0.1,2.2,1.2,2.1,2.4c-0.1,1.2-1,2.1-2.2,2.1C1,4.8,0,3.7,0,2.4z M4,2.4  c-0.1-1-0.9-1.7-1.9-1.6S0.4,1.7,0.5,2.7c0.1,0.9,0.8,1.6,1.7,1.6C3.3,4.3,4,3.4,4,2.4L4,2.4z M1.7,2.7v1c0,0.1-0.1,0.2-0.2,0.2  S1.3,3.7,1.3,3.6l0,0V1.2c0-0.1,0-0.1,0.1-0.1h0.8c0.6,0,0.9,0.2,0.9,0.8c0,0.4-0.2,0.7-0.6,0.8c0,0,0,0-0.1,0L3,3.6  c0,0.1,0.1,0.1,0.1,0.2c0,0.1-0.1,0.1-0.2,0.1c-0.1,0-0.2-0.1-0.2-0.1l-0.6-1L1.7,2.7z M2.2,2.3c0.3,0,0.6,0,0.6-0.4  c0-0.3-0.3-0.4-0.6-0.4H1.7v0.8H2.2z"></path></g></svg>